:SAMPLES-PER-SECOND 30
:FRAME-RANGE 1-663
:FULLY-SPECIFIED
:DEGREES
436
root  -17.076 38.8436 -34.5984 -179.406 -7.41537 -179.175
RightUpLeg  -18.7736 2.31802 -0.15257
RightLeg  -4.54383 -16.5652 0.45529
RightFoot  -6.72821 -0.507449 11.4223
RightToes  -3.4386e-010 1.2921e-014 -6.02303e-014
Spine  -19.4246 -2.23012 -4.63218
Spine1  19.271 -3.28902 4.2668
HEad  16.4678 -2.85435 2.20558
LeftShoulder1  1.01009 -0.837644 -18.0216
LeftArm  -3.74267 3.8958 -48.7727
LeftForeArm  5.90865 -55.2202 -15.858
LeftHand  0.0782069 3.42171 -5.98668
RightShoulder  1.74736 1.96901 27.1389
RightArm  -13.0635 -11.6058 44.2486
RightForeArm  29.8745 66.1367 23.0323
RightHand  -0.0664058 -6.65196 2.49581
LeftUpLeg  6.81711 2.67995 -1.13667
LeftLeg  14.4564 -9.2568 -1.21893
LeftFoot  -19.7852 0.557189 5.93014
LeftToes  -7.12384e-010 -7.51861e-011 -8.34901e-011
437
root  -17.1306 38.6361 -35.7446 179.16 -8.401 -179.102
RightUpLeg  -18.0477 1.77599 -0.01223
RightLeg  -3.30665 -19.6494 0.76872
RightFoot  -6.99895 -0.357214 8.15043
RightToes  -3.4386e-010 1.2921e-014 -6.02303e-014
Spine  -16.0586 -2.53413 -3.87109
Spine1  16.6533 -3.66679 4.07249
HEad  16.214 -2.76175 1.80356
LeftShoulder1  0.982446 -0.695267 -18.2119
LeftArm  -3.48662 4.21382 -48.2361
LeftForeArm  6.46689 -55.9015 -16.2511
LeftHand  0.152224 1.77848 -5.30246
RightShoulder  1.53289 1.3237 27.0974
RightArm  -11.3457 -11.5021 43.8311
RightForeArm  29.4333 66.7521 23.929
RightHand  -0.0374977 -5.6507 2.04186
LeftUpLeg  9.82731 0.966928 -1.26103
LeftLeg  15.332 -8.40893 -0.791999
LeftFoot  -21.1605 0.521469 4.58707
LeftToes  -7.12384e-010 -7.51861e-011 -8.34901e-011
438
root  -17.1805 38.5262 -36.8838 177.897 -9.59336 -178.721
RightUpLeg  -17.2787 0.916382 0.378102
RightLeg  0.387621 -23.1578 0.445061
RightFoot  -3.17689 -0.37185 4.90287
RightToes  -3.4386e-010 1.2921e-014 -6.02303e-014
Spine  -12.914 -3.04029 -2.87248
Spine1  14.332 -4.38258 4.33928
HEad  15.6047 -2.43657 0.924753
LeftShoulder1  0.971172 -0.587358 -18.6338
LeftArm  -3.631 4.36496 -47.6611
LeftForeArm  6.7731 -56.1807 -16.4098
LeftHand  0.171822 0.914429 -4.64442
RightShoulder  1.52349 1.34603 26.7218
RightArm  -10.1817 -11.6095 43.364
RightForeArm  29.1465 67.4643 25.0087
RightHand  -0.0513131 -6.38738 1.68835
LeftUpLeg  12.3353 -2.13685 -1.2823
LeftLeg  16.5955 -6.90814 -0.840446
LeftFoot  -21.4346 0.404062 3.11638
LeftToes  -7.12384e-010 -7.51861e-011 -8.34901e-011
439
root  -17.1994 38.566 -38.0242 177.133 -11.1678 -177.563
RightUpLeg  -16.9919 1.47391 1.5566
RightLeg  3.69307 -26.375 -1.61448
RightFoot  2.55055 -0.211567 1.87892
RightToes  -3.4386e-010 1.2921e-014 -6.02303e-014
Spine  -10.5723 -3.71072 -1.38302
Spine1  12.3421 -5.51756 5.48997
HEad  15.0466 -2.30169 0.0209272
LeftShoulder1  1.00296 -0.702299 -18.7183
LeftArm  -4.39184 5.15801 -47.991
LeftForeArm  7.26301 -56.411 -16.5211
LeftHand  0.143084 0.937978 -3.91472
RightShoulder  1.49003 1.27154 26.5116
RightArm  -9.41448 -11.6366 42.9565
RightForeArm  29.392 68.0137 25.8269
RightHand  -0.0575464 -6.79108 1.45167
LeftUpLeg  13.5931 -6.63715 -0.698113
LeftLeg  18.7081 -4.53096 -1.34936
LeftFoot  -20.6008 0.192582 0.851195
LeftToes  -7.12384e-010 -7.51861e-011 -8.34901e-011
440
root  -17.2088 38.5701 -39.2399 177.521 -11.1446 -176.677
RightUpLeg  -18.3727 1.20473 2.44033
RightLeg  8.49512 -25.3792 -2.92253
RightFoot  4.96994 -0.34204 2.62324
RightToes  -3.4386e-010 1.2921e-014 -6.02303e-014
Spine  -9.80085 -3.89795 0.464774
Spine1  10.8834 -5.82819 6.02791
HEad  14.42 -1.87099 -0.541746
LeftShoulder1  1.00912 -0.625957 -19.4101
LeftArm  -4.84453 5.91625 -47.6484
LeftForeArm  7.36498 -56.4914 -16.5667
LeftHand  0.10195 1.54438 -3.38913
RightShoulder  1.3725 0.9471 26.2021
RightArm  -8.62731 -11.2643 43.0872
RightForeArm  28.637 67.8699 25.718
RightHand  -0.0597962 -7.02928 1.30822
LeftUpLeg  12.3833 -7.40619 0.33335
LeftLeg  23.5503 -4.42317 -1.77685
LeftFoot  -18.8592 -0.0361386 -2.271
LeftToes  -7.12384e-010 -7.51861e-011 -8.34901e-011
441
root  -17.236 38.5646 -40.4501 178.975 -9.79181 -176.214
RightUpLeg  -20.2894 -0.478791 3.13373
RightLeg  12.5262 -22.3849 -2.52412
RightFoot  4.26137 -0.393431 3.08318
RightToes  -3.4386e-010 1.2921e-014 -6.02303e-014
Spine  -10.3241 -3.77901 2.24935
Spine1  10.0244 -5.68553 6.3313
HEad  13.6022 -1.10411 -0.740956
LeftShoulder1  1.00906 -0.490296 -20.3919
LeftArm  -5.52856 7.27295 -46.8078
LeftForeArm  7.38681 -56.5144 -16.5804
LeftHand  0.0849187 2.27138 -3.71052
RightShoulder  1.30401 0.763169 25.9566
RightArm  -7.87558 -10.2491 43.8721
RightForeArm  27.3056 66.7886 24.2981
RightHand  -0.0493648 -6.69043 1.08839
LeftUpLeg  8.44685 -5.66704 1.71682
LeftLeg  31.1741 -5.12726 -2.99581
LeftFoot  -14.6598 -0.0913488 -6.17915
LeftToes  -7.12384e-010 -7.51861e-011 -8.34901e-011
442
root  -17.2082 38.5841 -41.5875 -179.495 -9.22497 -175.56
RightUpLeg  -21.7538 -1.05231 4.42217
RightLeg  15.2991 -20.5538 -2.80093
RightFoot  2.97522 -0.0119642 0.257077
RightToes  -3.4386e-010 1.2921e-014 -6.02303e-014
Spine  -10.7763 -4.12586 3.6912
Spine1  9.15596 -6.04659 6.74283
HEad  13.2205 -0.722224 -0.270813
LeftShoulder1  1.0062 -0.466322 -20.4916
LeftArm  -6.43624 8.93576 -45.9095
LeftForeArm  7.87444 -56.6773 -16.6475
LeftHand  0.139921 2.61193 -6.62576
RightShoulder  1.35448 0.92038 25.9675
RightArm  -7.05897 -9.55227 44.4142
RightForeArm  26.9199 66.4181 23.8378
RightHand  -0.0508968 -6.92822 0.898915
LeftUpLeg  2.31291 -3.44323 3.9186
LeftLeg  40.9574 -5.91458 -5.10076
LeftFoot  -7.03884 0.379863 -8.97822
LeftToes  -7.12384e-010 -7.51861e-011 -8.34901e-011
443
root  -17.1534 38.5841 -42.6976 -178.659 -8.54821 -174.861
RightUpLeg  -22.1138 -1.09666 5.66304
RightLeg  17.5045 -19.6757 -2.94801
RightFoot  1.21089 0.182077 -1.57949
RightToes  -3.4386e-010 1.2921e-014 -6.02303e-014
Spine  -10.5569 -4.20883 5.40786
Spine1  8.35488 -5.99256 6.41694
HEad  12.9771 -1.60394 1.04151
LeftShoulder1  1.02839 -0.631204 -19.8993
LeftArm  -7.29704 10.3416 -45.3149
LeftForeArm  9.49577 -57.0633 -16.7648
LeftHand  0.192315 1.97971 -7.05315
RightShoulder  1.35883 0.877228 26.4207
RightArm  -5.97669 -8.81063 44.3455
RightForeArm  26.214 66.5958 24.188
RightHand  -0.0574381 -7.38928 0.918338
LeftUpLeg  -3.94979 -1.94703 5.7437
LeftLeg  50.6121 -5.3636 -6.53303
LeftFoot  2.31405 1.4214 -11.9557
LeftToes  -7.12384e-010 -7.51861e-011 -8.34901e-011
444
root  -17.1296 38.4831 -43.7912 -178.151 -7.58591 -173.806
RightUpLeg  -22.2124 -2.17794 7.28716
RightLeg  19.9809 -17.4819 -2.60124
RightFoot  -1.72237 0.139854 -1.80014
RightToes  -3.4386e-010 1.2921e-014 -6.02303e-014
Spine  -10.6787 -4.03182 7.46785
Spine1  8.21391 -5.75384 6.16205
HEad  12.9105 -3.07077 2.18276
LeftShoulder1  1.00091 -0.563459 -19.6272
LeftArm  -7.32674 10.5778 -44.5646
LeftForeArm  8.43589 -56.412 -16.414
LeftHand  0.164651 1.15128 -4.74741
RightShoulder  1.27518 0.626063 26.3515
RightArm  -4.78155 -7.67192 45.0679
RightForeArm  24.671 65.9335 23.5096
RightHand  -0.0558983 -7.60049 0.701859
LeftUpLeg  -10.1035 -1.04967 7.42159
LeftLeg  58.8335 -3.94764 -6.49702
LeftFoot  12.1745 2.87607 -14.1196
LeftToes  -7.12384e-010 -7.51861e-011 -8.34901e-011
445
root  -17.1181 38.45 -44.9231 -177.499 -6.31825 -173.325
RightUpLeg  -21.9152 -3.60249 8.52244
RightLeg  21.7409 -14.7326 -2.11535
RightFoot  -4.45119 0.102899 -2.20926
RightToes  -3.4386e-010 1.2921e-014 -6.02303e-014
Spine  -11.6423 -3.63473 8.87766
Spine1  8.7656 -5.31167 5.54502
HEad  13.2802 -4.85769 3.20339
LeftShoulder1  0.941156 -0.400514 -19.1156
LeftArm  -7.18584 10.1283 -44.5328
LeftForeArm  7.82733 -55.8216 -16.0758
LeftHand  0.202206 0.815173 -5.30666
RightShoulder  1.35396 0.901146 26.1071
RightArm  -4.11466 -7.02398 45.8067
RightForeArm  23.2599 65.1946 22.7604
RightHand  -0.0478397 -7.7494 0.249829
LeftUpLeg  -15.637 -0.458759 8.09928
LeftLeg  64.8772 -2.37526 -4.88524
LeftFoot  10.9033 2.4721 -12.8718
LeftToes  -7.12384e-010 -7.51861e-011 -8.34901e-011
446
root  -17.1024 38.4942 -46.0908 -176.928 -4.80139 -173.137
RightUpLeg  -20.8495 -4.28169 9.23681
RightLeg  22.4464 -12.646 -1.49028
RightFoot  -6.63144 0.0663035 -2.70228
RightToes  -3.4386e-010 1.2921e-014 -6.02303e-014
Spine  -12.6255 -3.05695 10.1023
Spine1  9.14132 -4.61053 4.29715
HEad  13.7385 -7.00012 4.33848
LeftShoulder1  0.909406 -0.352696 -18.5375
LeftArm  -7.19119 9.20094 -44.4874
LeftForeArm  9.15764 -55.9365 -16.0305
LeftHand  0.149945 1.20927 -4.41008
RightShoulder  1.393 1.00508 26.2487
RightArm  -3.6436 -6.57498 46.51
RightForeArm  21.9704 64.4998 22.0968
RightHand  -0.0365556 -7.77109 -0.273865
LeftUpLeg  -20.5138 -0.240468 8.42057
LeftLeg  67.723 -1.5452 -3.43061
LeftFoot  6.51115 1.5867 -10.3343
LeftToes  -7.12384e-010 -7.51861e-011 -8.34901e-011
447
root  -17.0966 38.5114 -47.2711 -176.516 -3.02515 -173.109
RightUpLeg  -19.6966 -4.21349 9.88691
RightLeg  23.4214 -10.8634 -1.73272
RightFoot  -8.68321 0.0103877 -2.97738
RightToes  -3.4386e-010 1.2921e-014 -6.02303e-014
Spine  -13.2932 -2.43559 11.1017
Spine1  9.20245 -3.91592 3.13969
HEad  13.9237 -9.21218 5.16341
LeftShoulder1  0.831816 -0.0876938 -18.1633
LeftArm  -7.03742 7.60903 -44.2923
LeftForeArm  9.36515 -55.398 -15.6638
LeftHand  0.186901 1.23869 -5.49382
RightShoulder  1.41198 1.09339 26.0254
RightArm  -3.26162 -6.117 47.6406
RightForeArm  21.1203 63.6589 21.2573
RightHand  -0.0240039 -7.96954 -0.831423
LeftUpLeg  -24.7203 -0.559721 8.70837
LeftLeg  67.5534 -0.886366 -1.63869
LeftFoot  2.81599 1.21877 -9.93479
LeftToes  -7.12384e-010 -7.51861e-011 -8.34901e-011
448
root  -17.0931 38.5608 -48.4484 -176.252 -1.06558 -173.256
RightUpLeg  -17.9885 -4.88539 10.0996
RightLeg  23.6923 -8.09348 -1.14888
RightFoot  -10.5575 -0.0486158 -3.32278
RightToes  -3.4386e-010 1.2921e-014 -6.02303e-014
Spine  -13.8842 -1.71035 12.0089
Spine1  9.24665 -3.04701 1.52365
HEad  13.9085 -11.7298 5.93429
LeftShoulder1  0.829906 -0.14415 -17.6693
LeftArm  -6.73981 5.66323 -44.1093
LeftForeArm  8.61215 -54.2317 -15.0128
LeftHand  0.16432 1.21504 -4.82227
RightShoulder  1.45394 1.19799 26.2258
RightArm  -2.92634 -5.88828 48.2425
RightForeArm  20.404 63.1151 20.7671
RightHand  -0.00398409 -8.14799 -1.61348
LeftUpLeg  -28.0765 -0.992913 8.97856
LeftLeg  64.8125 -0.132355 0.346051
LeftFoot  -1.75784 0.737587 -8.66269
LeftToes  -7.12384e-010 -7.51861e-011 -8.34901e-011
